HIERARCHY
ROOT Pelvis
{
	OFFSET -0.217368 -24.078917 2.858379
	CHANNELS 6 Xposition Yposition Zposition Zrotation Yrotation Xrotation 
	JOINT Left_hip
	{
		OFFSET 5.858135 -8.228005 -1.766408
		CHANNELS 3 Zrotation Yrotation Xrotation
		JOINT Left_knee
		{
			OFFSET 4.345143 -38.646942 0.803700
			CHANNELS 3 Zrotation Yrotation Xrotation
			JOINT Left_ankle
			{
				OFFSET -1.479033 -42.687447 -3.742800
				CHANNELS 3 Zrotation Yrotation Xrotation
				JOINT Left_foot
				{
					OFFSET 4.105436 -6.028605 12.204244
					CHANNELS 3 Zrotation Yrotation Xrotation
					End Site
					{
						OFFSET 0.000000 0.000000 0.000000
					}
				}
			}
		}
	}
	JOINT Right_hip
	{
		OFFSET -6.030973 -9.051328 -1.354253
		CHANNELS 3 Zrotation Yrotation Xrotation
		JOINT Right_knee
		{
			OFFSET -4.325663 -38.368790 -0.484304
			CHANNELS 3 Zrotation Yrotation Xrotation
			JOINT Right_ankle
			{
				OFFSET 1.905555 -42.004566 -3.456167
				CHANNELS 3 Zrotation Yrotation Xrotation
				JOINT Right_foot
				{
					OFFSET -3.483987 -6.210554 13.032330
					CHANNELS 3 Zrotation Yrotation Xrotation
					End Site
					{
						OFFSET 0.000000 0.000000 0.000000
					}
				}
			}
		}
	}
	JOINT Spine1
	{
		OFFSET 0.443945 12.440353 -3.838522
		CHANNELS 3 Zrotation Yrotation Xrotation
		JOINT Spine2
		{
			OFFSET 0.448844 13.795640 2.682033
			CHANNELS 3 Zrotation Yrotation Xrotation
			JOINT Spine3
			{
				OFFSET -0.226460 5.603239 0.285504
				CHANNELS 3 Zrotation Yrotation Xrotation
				JOINT Neck
				{
					OFFSET -1.339018 21.163553 -3.346758
					CHANNELS 3 Zrotation Yrotation Xrotation
					JOINT Head
					{
						OFFSET 1.011321 8.893734 5.040987
						CHANNELS 3 Zrotation Yrotation Xrotation
						End Site
						{
							OFFSET 0.000000 0.000000 0.000000
						}
					}
				}
				JOINT Left_collar
				{
					OFFSET 7.170247 11.399971 -1.889817
					CHANNELS 3 Zrotation Yrotation Xrotation
					JOINT Left_shoulder
					{
						OFFSET 12.292140 4.520507 -1.904600
						CHANNELS 3 Zrotation Yrotation Xrotation
						JOINT Left_elbow
						{
							OFFSET 25.533188 -1.564902 -2.294648
							CHANNELS 3 Zrotation Yrotation Xrotation
							JOINT Left_wrist
							{
								OFFSET 26.570929 1.269810 -0.737473
								CHANNELS 3 Zrotation Yrotation Xrotation
								JOINT Left_palm
								{
									OFFSET 8.669054 -1.063602 -1.559429
									CHANNELS 3 Zrotation Yrotation Xrotation
									End Site
									{
										OFFSET 0.000000 0.000000 0.000000
									}
								}
							}
						}
					}
				}
				JOINT Right_collar
				{
					OFFSET -8.295364 11.247234 -2.370738
					CHANNELS 3 Zrotation Yrotation Xrotation
					JOINT Right_shoulder
					{
						OFFSET -11.322830 4.685326 -0.847207
						CHANNELS 3 Zrotation Yrotation Xrotation
						JOINT Right_elbow
						{
							OFFSET -26.012751 -1.436928 -3.126872
							CHANNELS 3 Zrotation Yrotation Xrotation
							JOINT Right_wrist
							{
								OFFSET -26.910841 0.679372 -0.602677
								CHANNELS 3 Zrotation Yrotation Xrotation
								JOINT Right_palm
								{
									OFFSET -8.875370 -0.865157 -1.010708
									CHANNELS 3 Zrotation Yrotation Xrotation
									End Site
									{
										OFFSET 0.000000 0.000000 0.000000
									}
								}
							}
						}
					}
				}
			}
		}
	}
}
MOTION
Frames: 10
Frame Time: 0.016667
-0.217368 58.403236 2.858379 -0.374659 -7.095547 -5.224993 22.637629 1.275303 -14.413786 -17.629201 7.235638 40.004239 11.696514 24.456217 -10.157421 0.000000 0.000000 0.000000 -19.988384 -0.444711 -12.086101 14.752165 -5.388022 38.982845 -9.871140 -25.369059 -11.798402 0.000000 0.000000 0.000000 5.152090 -0.685868 7.486708 -2.773511 1.315566 -11.270038 -4.055312 7.257147 9.318064 9.548629 -5.199211 -11.923149 0.000000 0.000000 0.000000 -16.156384 -26.441644 12.062730 0.931062 -36.905608 -2.174879 3.672937 -36.221086 0.169629 0.000000 0.000000 0.000000 0.000000 0.000000 0.000000 18.908105 20.718859 9.472602 2.785991 38.108573 -1.386030 0.771525 34.030972 1.299531 0.000000 0.000000 0.000000 0.000000 0.000000 0.000000 
-0.176630 58.713463 2.785931 -0.385757 -7.692882 -5.245759 20.690607 1.161290 -15.632702 -15.601396 6.453543 41.773116 14.639616 29.676009 -3.299841 0.000000 0.000000 0.000000 -19.867965 -0.547725 -13.605467 14.504582 -5.366159 39.883900 -10.405623 -26.155237 -7.257977 0.000000 0.000000 0.000000 5.730937 -0.579891 5.856069 -4.120491 1.831328 -9.522692 -2.472906 7.318403 10.543173 8.045905 -3.982187 -13.434174 0.000000 0.000000 0.000000 -17.187020 -25.729078 11.858697 2.279771 -43.320447 -3.038009 -1.834090 -35.635664 1.914762 0.000000 0.000000 0.000000 0.000000 0.000000 0.000000 17.301327 21.731328 9.827232 1.065617 37.225612 -1.804426 -1.565800 33.967693 0.629329 0.000000 0.000000 0.000000 0.000000 0.000000 0.000000 
-0.176152 58.570465 2.756520 -0.003994 -8.473775 -4.523162 20.496611 1.186593 -16.189689 -15.855441 6.523439 41.308265 15.296246 30.571832 -1.666973 0.000000 0.000000 0.000000 -18.130800 -0.482827 -15.338564 11.744609 -4.108554 41.066963 -10.372526 -26.550410 -9.944918 0.000000 0.000000 0.000000 5.071814 -0.485455 5.211361 -3.421900 1.575209 -8.225892 -3.061671 7.956582 9.866255 7.232391 -3.491642 -13.335573 0.000000 0.000000 0.000000 -17.400160 -26.203419 12.163138 0.364040 -42.266921 -2.383798 -0.703145 -36.199090 1.581821 0.000000 0.000000 0.000000 0.000000 0.000000 0.000000 19.990709 21.768135 10.224402 0.159772 37.290256 -2.044363 -6.367298 36.922380 -0.823879 0.000000 0.000000 0.000000 0.000000 0.000000 0.000000 
-0.155649 58.743393 2.716356 -0.459625 -7.694383 -4.454094 20.596773 1.321533 -17.536234 -15.172811 6.416019 43.237998 16.126442 31.185809 2.205612 0.000000 0.000000 0.000000 -18.433174 -0.583372 -16.414856 12.381424 -4.559102 42.578913 -10.962451 -27.109165 -4.511440 0.000000 0.000000 0.000000 4.855008 -0.452178 4.952951 -2.637730 1.266072 -7.839776 -3.178215 7.584868 9.407833 6.348224 -2.752068 -14.652528 0.000000 0.000000 0.000000 -18.845764 -25.951963 12.289086 2.000898 -43.224497 -2.944744 -2.278815 -36.150821 2.088141 0.000000 0.000000 0.000000 0.000000 0.000000 0.000000 20.584368 22.689929 10.855825 -1.333866 35.216154 -2.279538 -5.119620 39.953474 -0.480410 0.000000 0.000000 0.000000 0.000000 0.000000 0.000000 
-0.149270 58.669479 2.697281 -0.570175 -7.668032 -4.560214 20.779731 1.272412 -16.718891 -15.104697 6.333392 42.867764 15.497323 30.712311 -0.634628 0.000000 0.000000 0.000000 -17.966636 -0.546248 -16.749965 11.860554 -4.356852 43.407679 -10.679665 -26.574821 -5.509075 0.000000 0.000000 0.000000 4.949075 -0.440064 4.751396 -2.228228 1.101328 -7.431296 -3.388738 7.562863 9.922736 6.779893 -2.940237 -15.148525 0.000000 0.000000 0.000000 -19.006056 -25.821414 12.243246 1.360566 -43.321069 -2.757298 -2.913867 -36.949646 2.348039 0.000000 0.000000 0.000000 0.000000 0.000000 0.000000 20.223579 22.797766 10.864094 -1.388445 34.986519 -2.275479 -5.482637 40.034708 -0.607054 0.000000 0.000000 0.000000 0.000000 0.000000 0.000000 
-0.134511 58.651428 2.687255 -0.289781 -8.164255 -4.206429 20.934541 1.304413 -16.836140 -16.100337 6.739584 41.983315 16.477276 32.128194 0.749368 0.000000 0.000000 0.000000 -18.118425 -0.576145 -16.936055 11.580876 -4.220508 43.549055 -10.830250 -26.843425 -4.866797 0.000000 0.000000 0.000000 4.541301 -0.356496 3.967635 -1.823764 0.931648 -6.592989 -3.793557 8.364129 9.864483 6.898436 -3.141667 -14.277176 0.000000 0.000000 0.000000 -19.780671 -26.348346 12.697346 3.873765 -42.760843 -3.467247 -2.293744 -37.374804 2.169532 0.000000 0.000000 0.000000 0.000000 0.000000 0.000000 21.107763 23.548115 11.453183 -2.705951 33.953555 -2.498987 -4.853394 40.205125 -0.392141 0.000000 0.000000 0.000000 0.000000 0.000000 0.000000 
-0.133762 58.574959 2.673616 -0.552434 -8.009210 -4.450583 21.320916 1.311493 -16.362768 -15.994670 6.778595 42.682023 15.787464 31.279966 -0.819837 0.000000 0.000000 0.000000 -17.916311 -0.548091 -16.890541 11.970626 -4.439496 43.702300 -10.814020 -26.946909 -5.659375 0.000000 0.000000 0.000000 4.739435 -0.375409 4.093711 -2.012385 1.010940 -6.873997 -3.296734 7.974637 10.644699 6.613648 -2.799420 -15.431370 0.000000 0.000000 0.000000 -19.848520 -26.930666 13.055055 4.164818 -42.046065 -3.478275 -1.529562 -37.191409 1.903546 0.000000 0.000000 0.000000 0.000000 0.000000 0.000000 21.197688 24.427499 12.000468 -2.410554 33.542994 -2.396930 -6.341487 39.346742 -0.884034 0.000000 0.000000 0.000000 0.000000 0.000000 0.000000 
-0.132181 58.554504 2.653898 -0.415918 -7.847440 -4.659690 20.740200 1.251469 -16.549072 -15.786409 6.752438 43.310855 15.861694 31.227487 -0.016851 0.000000 0.000000 0.000000 -17.756395 -0.541943 -17.138114 12.163246 -4.597583 44.351934 -11.058786 -27.510830 -5.342843 0.000000 0.000000 0.000000 4.301701 -0.429334 5.026473 -1.634786 0.876261 -8.779789 -3.295769 8.250704 11.606346 6.684830 -2.810343 -15.647829 0.000000 0.000000 0.000000 -18.586763 -27.377604 13.063217 4.536747 -42.118233 -3.595042 -1.069525 -36.681938 1.724599 0.000000 0.000000 0.000000 0.000000 0.000000 0.000000 20.940514 24.561931 12.036454 -1.535467 34.061764 -2.240201 -7.323751 38.472279 -1.183236 0.000000 0.000000 0.000000 0.000000 0.000000 0.000000 
-0.126572 58.516190 2.639052 -0.465228 -7.806487 -5.006467 20.587090 1.187532 -16.068597 -15.692958 6.757551 43.726076 16.125020 31.741648 -0.210075 0.000000 0.000000 0.000000 -17.790235 -0.560678 -17.393264 12.371043 -4.805589 45.432602 -11.250112 -27.911030 -4.942020 0.000000 0.000000 0.000000 4.187114 -0.439419 5.233828 -1.682179 0.896863 -9.006395 -3.091879 8.220043 11.899424 6.652618 -2.706640 -16.232177 0.000000 0.000000 0.000000 -18.013286 -27.709394 13.137270 5.048296 -42.633548 -3.805125 0.198375 -35.236599 1.254023 0.000000 0.000000 0.000000 0.000000 0.000000 0.000000 21.007806 24.950266 12.283421 -0.763016 35.093169 -2.133803 -8.507840 36.531399 -1.477986 0.000000 0.000000 0.000000 0.000000 0.000000 0.000000 
-0.120819 58.634422 2.632901 -0.297802 -8.529176 -5.118588 20.806842 1.107744 -14.891338 -16.615046 7.114816 42.748331 16.058187 31.921539 -1.439129 0.000000 0.000000 0.000000 -17.457231 -0.527456 -17.580326 12.020399 -4.657030 45.951260 -11.238861 -27.797668 -4.526632 0.000000 0.000000 0.000000 3.990624 -0.446237 5.464018 -1.581140 0.865848 -9.764431 -3.158892 8.893112 12.490179 6.826846 -2.792982 -16.341206 0.000000 0.000000 0.000000 -17.875567 -27.895116 13.215129 6.609595 -42.624524 -4.271608 0.519719 -34.491023 1.127329 0.000000 0.000000 0.000000 0.000000 0.000000 0.000000 21.529364 25.481046 12.703887 -0.786578 35.155078 -2.143699 -9.543228 35.987426 -1.767811 0.000000 0.000000 0.000000 0.000000 0.000000 0.000000 
